<!-- created by svgstack.com | Attribution is required. --><svg width="201" height="123" viewBox="0 0 201 123" fill="none" xmlns="http://www.w3.org/2000/svg"><g clip-path="url(#clip0_105_1093)"><path d="M41.8987 24.264C74.4841 -7.64009 127.316 -7.64009 159.902 24.264L163.824 28.1037C165.453 29.6989 165.453 32.2853 163.824 33.8805L150.408 47.0154C149.593 47.813 148.273 47.813 147.458 47.0154L142.061 41.7315C119.328 19.4744 82.4718 19.4744 59.7393 41.7315L53.9599 47.3901C53.145 48.1877 51.8243 48.1877 51.0097 47.3901L37.5942 34.2552C35.9649 32.66 35.9649 30.0737 37.5942 28.4785L41.8987 24.264ZM187.646 51.4284L199.586 63.1187C201.216 64.7136 201.216 67.3002 199.586 68.895L145.749 121.607C144.12 123.203 141.478 123.203 139.849 121.607L101.638 84.1961C101.231 83.7971 100.57 83.7971 100.163 84.1961L61.9532 121.607C60.3238 123.203 57.6826 123.203 56.0532 121.607L2.21415 68.8945C0.584867 67.2991 0.584867 64.7131 2.21415 63.1177L14.154 51.4277C15.7833 49.8325 18.4249 49.8325 20.0541 51.4277L58.2651 88.8393C58.6728 89.2383 59.3331 89.2383 59.7403 88.8393L97.9496 51.4277C99.579 49.8324 102.22 49.8324 103.85 51.4275C103.85 51.4276 103.85 51.4276 103.85 51.4276L142.061 88.8393C142.468 89.2383 143.128 89.2383 143.536 88.8393L181.746 51.4284C183.375 49.8332 186.017 49.8332 187.646 51.4284Z" fill="#3B99FC"/></g><defs><clipPath id="clip0_105_1093"><rect width="200" height="122.68" fill="white" transform="translate(0.919922 0.275391)"/></clipPath></defs></svg> 